<?xml version="1.0" encoding="UTF-8" standalone="no"?>
<!DOCTYPE svg PUBLIC "-//W3C//DTD SVG 1.1//EN"
 "http://www.w3.org/Graphics/SVG/1.1/DTD/svg11.dtd">
<!-- Generated by graphviz version 2.40.1 (20161225.0304)
 -->
<!-- Title: bank_database Pages: 1 -->
<svg width="655pt" height="360pt"
 viewBox="0.00 0.00 655.29 360.00" xmlns="http://www.w3.org/2000/svg" xmlns:xlink="http://www.w3.org/1999/xlink">
<g id="graph0" class="graph" transform="scale(1 1) rotate(0) translate(4 356)">
<title>bank_database</title>
<polygon fill="#ffffff" stroke="transparent" points="-4,4 -4,-356 651.2918,-356 651.2918,4 -4,4"/>
<!-- branch -->
<g id="node1" class="node">
<title>branch</title>
<polygon fill="none" stroke="#000000" points="9,-198 9,-220 121,-220 121,-198 9,-198"/>
<text text-anchor="start" x="44.7868" y="-205.4" font-family="Times,serif" font-weight="bold" font-size="14.00" fill="#000000">Branch</text>
<polygon fill="none" stroke="#000000" points="9,-176 9,-198 121,-198 121,-176 9,-176"/>
<text text-anchor="start" x="11.94" y="-183.4" font-family="Times,serif" text-decoration="underline" font-size="14.00" fill="#000000">branch_name (PK)</text>
<polygon fill="none" stroke="#000000" points="9,-154 9,-176 121,-176 121,-154 9,-154"/>
<text text-anchor="start" x="31.9572" y="-160.4" font-family="Times,serif" font-size="14.00" fill="#000000">branch_city</text>
<polygon fill="none" stroke="#000000" points="9,-132 9,-154 121,-154 121,-132 9,-132"/>
<text text-anchor="start" x="48.6732" y="-138.4" font-family="Times,serif" font-size="14.00" fill="#000000">assets</text>
<polygon fill="none" stroke="#000000" points="8,-131 8,-221 122,-221 122,-131 8,-131"/>
</g>
<!-- loan -->
<g id="node3" class="node">
<title>loan</title>
<polygon fill="none" stroke="#000000" points="266.8142,-325 266.8142,-347 378.8142,-347 378.8142,-325 266.8142,-325"/>
<text text-anchor="start" x="308.4306" y="-332.4" font-family="Times,serif" font-weight="bold" font-size="14.00" fill="#000000">Loan</text>
<polygon fill="none" stroke="#000000" points="266.8142,-303 266.8142,-325 378.8142,-325 378.8142,-303 266.8142,-303"/>
<text text-anchor="start" x="270.5235" y="-310.4" font-family="Times,serif" text-decoration="underline" font-size="14.00" fill="#000000">loan_number (PK)</text>
<polygon fill="none" stroke="#000000" points="266.8142,-281 266.8142,-303 378.8142,-303 378.8142,-281 266.8142,-281"/>
<text text-anchor="start" x="269.7542" y="-287.4" font-family="Times,serif" font-size="14.00" fill="#000000">branch_name (FK)</text>
<polygon fill="none" stroke="#000000" points="266.8142,-259 266.8142,-281 378.8142,-281 378.8142,-259 266.8142,-259"/>
<text text-anchor="start" x="301.8163" y="-265.4" font-family="Times,serif" font-size="14.00" fill="#000000">amount</text>
<polygon fill="none" stroke="#000000" points="265.8142,-258 265.8142,-348 379.8142,-348 379.8142,-258 265.8142,-258"/>
</g>
<!-- branch&#45;&gt;loan -->
<g id="edge1" class="edge">
<title>branch&#45;&gt;loan</title>
<path fill="none" stroke="#000000" d="M130.0574,-208.0475C166.0868,-225.7956 211.0191,-247.9294 248.4366,-266.3614"/>
<polygon fill="#000000" stroke="#000000" points="247.2603,-269.6835 257.7776,-270.9628 250.3536,-263.404 247.2603,-269.6835"/>
<text text-anchor="middle" x="189.4071" y="-258.2" font-family="Times,serif" font-size="14.00" fill="#000000">has loans</text>
</g>
<!-- account -->
<g id="node5" class="node">
<title>account</title>
<polygon fill="none" stroke="#000000" points="257.8142,-71 257.8142,-93 387.8142,-93 387.8142,-71 257.8142,-71"/>
<text text-anchor="start" x="299.101" y="-78.4" font-family="Times,serif" font-weight="bold" font-size="14.00" fill="#000000">Account</text>
<polygon fill="none" stroke="#000000" points="257.8142,-49 257.8142,-71 387.8142,-71 387.8142,-49 257.8142,-49"/>
<text text-anchor="start" x="260.8089" y="-56.4" font-family="Times,serif" text-decoration="underline" font-size="14.00" fill="#000000">account_number (PK)</text>
<polygon fill="none" stroke="#000000" points="257.8142,-27 257.8142,-49 387.8142,-49 387.8142,-27 257.8142,-27"/>
<text text-anchor="start" x="269.7542" y="-33.4" font-family="Times,serif" font-size="14.00" fill="#000000">branch_name (FK)</text>
<polygon fill="none" stroke="#000000" points="257.8142,-5 257.8142,-27 387.8142,-27 387.8142,-5 257.8142,-5"/>
<text text-anchor="start" x="301.4397" y="-11.4" font-family="Times,serif" font-size="14.00" fill="#000000">balance</text>
<polygon fill="none" stroke="#000000" points="256.8142,-4 256.8142,-94 388.8142,-94 388.8142,-4 256.8142,-4"/>
</g>
<!-- branch&#45;&gt;account -->
<g id="edge2" class="edge">
<title>branch&#45;&gt;account</title>
<path fill="none" stroke="#000000" d="M130.0574,-143.9525C163.1954,-127.6287 203.8648,-107.5948 239.2916,-90.1434"/>
<polygon fill="#000000" stroke="#000000" points="241.2303,-93.0901 248.6543,-85.5314 238.137,-86.8106 241.2303,-93.0901"/>
<text text-anchor="middle" x="189.4071" y="-138.2" font-family="Times,serif" font-size="14.00" fill="#000000">holds accounts</text>
</g>
<!-- customer -->
<g id="node2" class="node">
<title>customer</title>
<polygon fill="none" stroke="#000000" points="275.8142,-209 275.8142,-231 369.8142,-231 369.8142,-209 275.8142,-209"/>
<text text-anchor="start" x="295.5954" y="-216.4" font-family="Times,serif" font-weight="bold" font-size="14.00" fill="#000000">Customer</text>
<polygon fill="none" stroke="#000000" points="275.8142,-187 275.8142,-209 369.8142,-209 369.8142,-187 275.8142,-187"/>
<text text-anchor="start" x="300.0754" y="-194.4" font-family="Times,serif" text-decoration="underline" font-size="14.00" fill="#000000">ID (PK)</text>
<polygon fill="none" stroke="#000000" points="275.8142,-165 275.8142,-187 369.8142,-187 369.8142,-165 275.8142,-165"/>
<text text-anchor="start" x="278.4965" y="-171.4" font-family="Times,serif" font-size="14.00" fill="#000000">customer_name</text>
<polygon fill="none" stroke="#000000" points="275.8142,-143 275.8142,-165 369.8142,-165 369.8142,-143 275.8142,-143"/>
<text text-anchor="start" x="278.4986" y="-149.4" font-family="Times,serif" font-size="14.00" fill="#000000">customer_street</text>
<polygon fill="none" stroke="#000000" points="275.8142,-121 275.8142,-143 369.8142,-143 369.8142,-121 275.8142,-121"/>
<text text-anchor="start" x="283.1585" y="-127.4" font-family="Times,serif" font-size="14.00" fill="#000000">customer_city</text>
<polygon fill="none" stroke="#000000" points="274.8142,-120 274.8142,-232 370.8142,-232 370.8142,-120 274.8142,-120"/>
</g>
<!-- borrower -->
<g id="node4" class="node">
<title>borrower</title>
<polygon fill="none" stroke="#000000" points="518.2918,-218 518.2918,-240 628.2918,-240 628.2918,-218 518.2918,-218"/>
<text text-anchor="start" x="546.472" y="-225.4" font-family="Times,serif" font-weight="bold" font-size="14.00" fill="#000000">Borrower</text>
<polygon fill="none" stroke="#000000" points="518.2918,-196 518.2918,-218 628.2918,-218 628.2918,-196 518.2918,-196"/>
<text text-anchor="start" x="550.553" y="-202.4" font-family="Times,serif" font-size="14.00" fill="#000000">ID (FK)</text>
<polygon fill="none" stroke="#000000" points="518.2918,-174 518.2918,-196 628.2918,-196 628.2918,-174 518.2918,-174"/>
<text text-anchor="start" x="521.0011" y="-180.4" font-family="Times,serif" font-size="14.00" fill="#000000">loan_number (FK)</text>
<polygon fill="none" stroke="#000000" points="517.2918,-173 517.2918,-241 629.2918,-241 629.2918,-173 517.2918,-173"/>
</g>
<!-- customer&#45;&gt;borrower -->
<g id="edge3" class="edge">
<title>customer&#45;&gt;borrower</title>
<path fill="none" stroke="#000000" d="M379.0263,-182.957C414.3783,-187.3323 460.4017,-193.0283 498.7783,-197.7779"/>
<polygon fill="#000000" stroke="#000000" points="498.516,-201.2721 508.8702,-199.027 499.3759,-194.3251 498.516,-201.2721"/>
<text text-anchor="middle" x="448.053" y="-199.2" font-family="Times,serif" font-size="14.00" fill="#000000">borrows</text>
</g>
<!-- depositor -->
<g id="node6" class="node">
<title>depositor</title>
<polygon fill="none" stroke="#000000" points="508.2918,-118 508.2918,-140 638.2918,-140 638.2918,-118 508.2918,-118"/>
<text text-anchor="start" x="545.688" y="-125.4" font-family="Times,serif" font-weight="bold" font-size="14.00" fill="#000000">Depositor</text>
<polygon fill="none" stroke="#000000" points="508.2918,-96 508.2918,-118 638.2918,-118 638.2918,-96 508.2918,-96"/>
<text text-anchor="start" x="550.553" y="-102.4" font-family="Times,serif" font-size="14.00" fill="#000000">ID (FK)</text>
<polygon fill="none" stroke="#000000" points="508.2918,-74 508.2918,-96 638.2918,-96 638.2918,-74 508.2918,-74"/>
<text text-anchor="start" x="511.2865" y="-80.4" font-family="Times,serif" font-size="14.00" fill="#000000">account_number (FK)</text>
<polygon fill="none" stroke="#000000" points="507.2918,-73 507.2918,-141 639.2918,-141 639.2918,-73 507.2918,-73"/>
</g>
<!-- customer&#45;&gt;depositor -->
<g id="edge4" class="edge">
<title>customer&#45;&gt;depositor</title>
<path fill="none" stroke="#000000" d="M379.0263,-160.5151C411.4592,-151.5806 452.8739,-140.172 489.1257,-130.1856"/>
<polygon fill="#000000" stroke="#000000" points="490.4905,-133.44 499.2018,-127.4098 488.6314,-126.6914 490.4905,-133.44"/>
<text text-anchor="middle" x="448.053" y="-153.2" font-family="Times,serif" font-size="14.00" fill="#000000">deposits</text>
</g>
<!-- loan&#45;&gt;borrower -->
<g id="edge5" class="edge">
<title>loan&#45;&gt;borrower</title>
<path fill="none" stroke="#000000" d="M387.9704,-278.0277C422.0216,-264.977 463.8388,-248.9498 499.1274,-235.4248"/>
<polygon fill="#000000" stroke="#000000" points="500.8106,-238.528 508.8956,-231.681 498.3054,-231.9917 500.8106,-238.528"/>
<text text-anchor="middle" x="448.053" y="-270.2" font-family="Times,serif" font-size="14.00" fill="#000000">is borrowed</text>
</g>
<!-- account&#45;&gt;depositor -->
<g id="edge6" class="edge">
<title>account&#45;&gt;depositor</title>
<path fill="none" stroke="#000000" d="M396.9491,-66.1665C425.8513,-72.859 459.1364,-80.5664 488.9486,-87.4697"/>
<polygon fill="#000000" stroke="#000000" points="488.3825,-90.9311 498.9143,-89.7773 489.9617,-84.1116 488.3825,-90.9311"/>
<text text-anchor="middle" x="448.053" y="-89.2" font-family="Times,serif" font-size="14.00" fill="#000000">is linked</text>
</g>
</g>
</svg>

