<?xml version="1.0" encoding="UTF-8" standalone="no"?>
<!DOCTYPE svg PUBLIC "-//W3C//DTD SVG 1.1//EN"
 "http://www.w3.org/Graphics/SVG/1.1/DTD/svg11.dtd">
<!-- Generated by graphviz version 2.40.1 (20161225.0304)
 -->
<!-- Title: league_database Pages: 1 -->
<svg width="790pt" height="413pt"
 viewBox="0.00 0.00 790.36 412.85" xmlns="http://www.w3.org/2000/svg" xmlns:xlink="http://www.w3.org/1999/xlink">
<g id="graph0" class="graph" transform="scale(1 1) rotate(0) translate(4 408.8528)">
<title>league_database</title>
<polygon fill="#ffffff" stroke="transparent" points="-4,4 -4,-408.8528 786.36,-408.8528 786.36,4 -4,4"/>
<!-- League -->
<g id="node1" class="node">
<title>League</title>
<polygon fill="none" stroke="#000000" points="218.526,-316.8528 218.526,-338.8528 309.526,-338.8528 309.526,-316.8528 218.526,-316.8528"/>
<text text-anchor="start" x="243.4278" y="-324.2528" font-family="Times,serif" font-weight="bold" font-size="14.00" fill="#000000">League</text>
<polygon fill="none" stroke="#000000" points="218.526,-294.8528 218.526,-316.8528 309.526,-316.8528 309.526,-294.8528 218.526,-294.8528"/>
<text text-anchor="start" x="221.4583" y="-302.2528" font-family="Times,serif" text-decoration="underline" font-size="14.00" fill="#000000">league_id (PK)</text>
<polygon fill="none" stroke="#000000" points="218.526,-272.8528 218.526,-294.8528 309.526,-294.8528 309.526,-272.8528 218.526,-272.8528"/>
<text text-anchor="start" x="248.8661" y="-279.2528" font-family="Times,serif" font-size="14.00" fill="#000000">name</text>
<polygon fill="none" stroke="#000000" points="217.026,-271.8528 217.026,-339.8528 310.026,-339.8528 310.026,-271.8528 217.026,-271.8528"/>
</g>
<!-- Team -->
<g id="node2" class="node">
<title>Team</title>
<polygon fill="none" stroke="#000000" points="435.7834,-316.8528 435.7834,-338.8528 526.7834,-338.8528 526.7834,-316.8528 435.7834,-316.8528"/>
<text text-anchor="start" x="465.3472" y="-324.2528" font-family="Times,serif" font-weight="bold" font-size="14.00" fill="#000000">Team</text>
<polygon fill="none" stroke="#000000" points="435.7834,-294.8528 435.7834,-316.8528 526.7834,-316.8528 526.7834,-294.8528 435.7834,-294.8528"/>
<text text-anchor="start" x="443.3777" y="-302.2528" font-family="Times,serif" text-decoration="underline" font-size="14.00" fill="#000000">team_id (PK)</text>
<polygon fill="none" stroke="#000000" points="435.7834,-272.8528 435.7834,-294.8528 526.7834,-294.8528 526.7834,-272.8528 435.7834,-272.8528"/>
<text text-anchor="start" x="466.1235" y="-279.2528" font-family="Times,serif" font-size="14.00" fill="#000000">name</text>
<polygon fill="none" stroke="#000000" points="435.7834,-250.8528 435.7834,-272.8528 526.7834,-272.8528 526.7834,-250.8528 435.7834,-250.8528"/>
<text text-anchor="start" x="438.7157" y="-257.2528" font-family="Times,serif" font-size="14.00" fill="#000000">league_id (FK)</text>
<polygon fill="none" stroke="#000000" points="434.2834,-249.8528 434.2834,-339.8528 527.2834,-339.8528 527.2834,-249.8528 434.2834,-249.8528"/>
</g>
<!-- League&#45;&gt;Team -->
<g id="edge1" class="edge">
<title>League&#45;&gt;Team</title>
<path fill="none" stroke="#000000" d="M318.0688,-303.0912C347.7691,-301.5875 384.7116,-299.717 415.8859,-298.1386"/>
<polygon fill="#000000" stroke="#000000" points="416.408,-301.6168 426.2182,-297.6155 416.054,-294.6257 416.408,-301.6168"/>
<text text-anchor="middle" x="372.9047" y="-306.0528" font-family="Times,serif" font-size="14.00" fill="#000000">contains</text>
</g>
<!-- PlayerHistory -->
<g id="node6" class="node">
<title>PlayerHistory</title>
<polygon fill="none" stroke="#000000" points="664.1138,-377.8528 664.1138,-399.8528 753.1138,-399.8528 753.1138,-377.8528 664.1138,-377.8528"/>
<text text-anchor="start" x="669.7358" y="-385.2528" font-family="Times,serif" font-weight="bold" font-size="14.00" fill="#000000">PlayerHistory</text>
<polygon fill="none" stroke="#000000" points="664.1138,-355.8528 664.1138,-377.8528 753.1138,-377.8528 753.1138,-355.8528 664.1138,-355.8528"/>
<text text-anchor="start" x="666.8231" y="-362.2528" font-family="Times,serif" font-size="14.00" fill="#000000">player_id (FK)</text>
<polygon fill="none" stroke="#000000" points="664.1138,-333.8528 664.1138,-355.8528 753.1138,-355.8528 753.1138,-333.8528 664.1138,-333.8528"/>
<text text-anchor="start" x="670.7081" y="-340.2528" font-family="Times,serif" font-size="14.00" fill="#000000">team_id (FK)</text>
<polygon fill="none" stroke="#000000" points="664.1138,-311.8528 664.1138,-333.8528 753.1138,-333.8528 753.1138,-311.8528 664.1138,-311.8528"/>
<text text-anchor="start" x="681.4034" y="-318.2528" font-family="Times,serif" font-size="14.00" fill="#000000">start_date</text>
<polygon fill="none" stroke="#000000" points="664.1138,-289.8528 664.1138,-311.8528 753.1138,-311.8528 753.1138,-289.8528 664.1138,-289.8528"/>
<text text-anchor="start" x="683.3466" y="-296.2528" font-family="Times,serif" font-size="14.00" fill="#000000">end_date</text>
<polygon fill="none" stroke="#000000" points="662.6138,-288.8528 662.6138,-400.8528 753.6138,-400.8528 753.6138,-288.8528 662.6138,-288.8528"/>
</g>
<!-- Team&#45;&gt;PlayerHistory -->
<g id="edge2" class="edge">
<title>Team&#45;&gt;PlayerHistory</title>
<path fill="none" stroke="#000000" d="M535.524,-306.8927C568.288,-314.0989 610.0806,-323.291 644.3336,-330.8247"/>
<polygon fill="#000000" stroke="#000000" points="643.7224,-334.2739 654.2408,-333.0038 645.2261,-327.4373 643.7224,-334.2739"/>
<text text-anchor="middle" x="584.5755" y="-328.0528" font-family="Times,serif" font-size="14.00" fill="#000000">has players</text>
</g>
<!-- Match -->
<g id="node3" class="node">
<title>Match</title>
<polygon fill="none" stroke="#000000" points="9.5,-155.8528 9.5,-177.8528 97.5,-177.8528 97.5,-155.8528 9.5,-155.8528"/>
<text text-anchor="start" x="35.6178" y="-163.2528" font-family="Times,serif" font-weight="bold" font-size="14.00" fill="#000000">Match</text>
<polygon fill="none" stroke="#000000" points="9.5,-133.8528 9.5,-155.8528 97.5,-155.8528 97.5,-133.8528 9.5,-133.8528"/>
<text text-anchor="start" x="12.0943" y="-141.2528" font-family="Times,serif" text-decoration="underline" font-size="14.00" fill="#000000">match_id (PK)</text>
<polygon fill="none" stroke="#000000" points="9.5,-111.8528 9.5,-133.8528 97.5,-133.8528 97.5,-111.8528 9.5,-111.8528"/>
<text text-anchor="start" x="41.8401" y="-118.2528" font-family="Times,serif" font-size="14.00" fill="#000000">date</text>
<polygon fill="none" stroke="#000000" points="9.5,-89.8528 9.5,-111.8528 97.5,-111.8528 97.5,-89.8528 9.5,-89.8528"/>
<text text-anchor="start" x="30.9495" y="-96.2528" font-family="Times,serif" font-size="14.00" fill="#000000">location</text>
<polygon fill="none" stroke="#000000" points="8.5,-88.8528 8.5,-178.8528 98.5,-178.8528 98.5,-88.8528 8.5,-88.8528"/>
</g>
<!-- Match_Teams -->
<g id="node4" class="node">
<title>Match_Teams</title>
<polygon fill="none" stroke="#000000" points="219.526,-222.8528 219.526,-244.8528 307.526,-244.8528 307.526,-222.8528 219.526,-222.8528"/>
<text text-anchor="start" x="223.4853" y="-230.2528" font-family="Times,serif" font-weight="bold" font-size="14.00" fill="#000000">Match_Teams</text>
<polygon fill="none" stroke="#000000" points="219.526,-200.8528 219.526,-222.8528 307.526,-222.8528 307.526,-200.8528 219.526,-200.8528"/>
<text text-anchor="start" x="222.1203" y="-207.2528" font-family="Times,serif" font-size="14.00" fill="#000000">match_id (FK)</text>
<polygon fill="none" stroke="#000000" points="219.526,-178.8528 219.526,-200.8528 307.526,-200.8528 307.526,-178.8528 219.526,-178.8528"/>
<text text-anchor="start" x="225.6203" y="-185.2528" font-family="Times,serif" font-size="14.00" fill="#000000">team_id (FK)</text>
<polygon fill="none" stroke="#000000" points="219.526,-156.8528 219.526,-178.8528 307.526,-178.8528 307.526,-156.8528 219.526,-156.8528"/>
<text text-anchor="start" x="231.6536" y="-163.2528" font-family="Times,serif" font-size="14.00" fill="#000000">team_score</text>
<polygon fill="none" stroke="#000000" points="218.526,-155.8528 218.526,-245.8528 308.526,-245.8528 308.526,-155.8528 218.526,-155.8528"/>
</g>
<!-- Match&#45;&gt;Match_Teams -->
<g id="edge3" class="edge">
<title>Match&#45;&gt;Match_Teams</title>
<path fill="none" stroke="#000000" d="M106.7699,-150.8464C135.2673,-159.9373 170.5422,-171.1902 200.409,-180.718"/>
<polygon fill="#000000" stroke="#000000" points="199.7221,-184.1726 210.3128,-183.8774 201.8496,-177.5037 199.7221,-184.1726"/>
<text text-anchor="middle" x="157.263" y="-180.0528" font-family="Times,serif" font-size="14.00" fill="#000000">includes</text>
</g>
<!-- Plays_In -->
<g id="node7" class="node">
<title>Plays_In</title>
<polygon fill="none" stroke="#000000" points="216.526,-106.8528 216.526,-128.8528 310.526,-128.8528 310.526,-106.8528 216.526,-106.8528"/>
<text text-anchor="start" x="239.0295" y="-114.2528" font-family="Times,serif" font-weight="bold" font-size="14.00" fill="#000000">Plays_In</text>
<polygon fill="none" stroke="#000000" points="216.526,-84.8528 216.526,-106.8528 310.526,-106.8528 310.526,-84.8528 216.526,-84.8528"/>
<text text-anchor="start" x="222.1203" y="-91.2528" font-family="Times,serif" font-size="14.00" fill="#000000">match_id (FK)</text>
<polygon fill="none" stroke="#000000" points="216.526,-62.8528 216.526,-84.8528 310.526,-84.8528 310.526,-62.8528 216.526,-62.8528"/>
<text text-anchor="start" x="221.7353" y="-69.2528" font-family="Times,serif" font-size="14.00" fill="#000000">player_id (FK)</text>
<polygon fill="none" stroke="#000000" points="216.526,-40.8528 216.526,-62.8528 310.526,-62.8528 310.526,-40.8528 216.526,-40.8528"/>
<text text-anchor="start" x="219.2006" y="-47.2528" font-family="Times,serif" font-size="14.00" fill="#000000">minutes_played</text>
<polygon fill="none" stroke="#000000" points="215.526,-39.8528 215.526,-129.8528 311.526,-129.8528 311.526,-39.8528 215.526,-39.8528"/>
</g>
<!-- Match&#45;&gt;Plays_In -->
<g id="edge5" class="edge">
<title>Match&#45;&gt;Plays_In</title>
<path fill="none" stroke="#000000" d="M106.7699,-121.4247C134.2737,-115.0079 168.0907,-107.1183 197.2658,-100.3116"/>
<polygon fill="#000000" stroke="#000000" points="198.4306,-103.6339 207.3739,-97.9534 196.8402,-96.817 198.4306,-103.6339"/>
<text text-anchor="middle" x="157.263" y="-121.0528" font-family="Times,serif" font-size="14.00" fill="#000000">includes</text>
</g>
<!-- Match_Teams&#45;&gt;Team -->
<g id="edge4" class="edge">
<title>Match_Teams&#45;&gt;Team</title>
<path fill="none" stroke="#000000" d="M316.6731,-223.8478C346.8579,-236.9077 384.8552,-253.3479 416.6843,-267.1193"/>
<polygon fill="#000000" stroke="#000000" points="415.3487,-270.3549 425.9163,-271.1137 418.1284,-263.9305 415.3487,-270.3549"/>
<text text-anchor="middle" x="372.9047" y="-265.0528" font-family="Times,serif" font-size="14.00" fill="#000000">participating</text>
</g>
<!-- Player -->
<g id="node5" class="node">
<title>Player</title>
<polygon fill="none" stroke="#000000" points="9.5,-343.8528 9.5,-365.8528 98.5,-365.8528 98.5,-343.8528 9.5,-343.8528"/>
<text text-anchor="start" x="36.1185" y="-351.2528" font-family="Times,serif" font-weight="bold" font-size="14.00" fill="#000000">Player</text>
<polygon fill="none" stroke="#000000" points="9.5,-321.8528 9.5,-343.8528 98.5,-343.8528 98.5,-321.8528 9.5,-321.8528"/>
<text text-anchor="start" x="12.2093" y="-329.2528" font-family="Times,serif" text-decoration="underline" font-size="14.00" fill="#000000">player_id (PK)</text>
<polygon fill="none" stroke="#000000" points="9.5,-299.8528 9.5,-321.8528 98.5,-321.8528 98.5,-299.8528 9.5,-299.8528"/>
<text text-anchor="start" x="38.8401" y="-306.2528" font-family="Times,serif" font-size="14.00" fill="#000000">name</text>
<polygon fill="none" stroke="#000000" points="9.5,-277.8528 9.5,-299.8528 98.5,-299.8528 98.5,-277.8528 9.5,-277.8528"/>
<text text-anchor="start" x="31.4418" y="-284.2528" font-family="Times,serif" font-size="14.00" fill="#000000">position</text>
<polygon fill="none" stroke="#000000" points="8,-276.8528 8,-366.8528 99,-366.8528 99,-276.8528 8,-276.8528"/>
</g>
<!-- Player&#45;&gt;PlayerHistory -->
<g id="edge6" class="edge">
<title>Player&#45;&gt;PlayerHistory</title>
<path fill="none" stroke="#000000" d="M107.277,-335.4045C136.6801,-342.1215 173.8693,-349.4995 207.526,-352.8528 363.9944,-368.4423 549.3056,-358.0034 644.5566,-350.538"/>
<polygon fill="#000000" stroke="#000000" points="644.9147,-354.0206 654.6042,-349.7352 644.3571,-347.0429 644.9147,-354.0206"/>
<text text-anchor="middle" x="372.9047" y="-365.0528" font-family="Times,serif" font-size="14.00" fill="#000000">belongs to</text>
</g>
<!-- Player&#45;&gt;Plays_In -->
<g id="edge7" class="edge">
<title>Player&#45;&gt;Plays_In</title>
<path fill="none" stroke="#000000" d="M107.1209,-283.3205C135.0555,-260.8498 167.8212,-230.3689 189.526,-196.8528 203.2773,-175.6184 194.4152,-164.4886 207.526,-142.8528 207.6393,-142.6658 207.7534,-142.4789 207.8681,-142.2921"/>
<polygon fill="#000000" stroke="#000000" points="210.7747,-144.2419 213.4536,-133.9914 204.967,-140.334 210.7747,-144.2419"/>
<text text-anchor="middle" x="157.263" y="-271.0528" font-family="Times,serif" font-size="14.00" fill="#000000">participates</text>
</g>
<!-- PlayerStats -->
<g id="node8" class="node">
<title>PlayerStats</title>
<polygon fill="none" stroke="#000000" points="436.7834,-139.8528 436.7834,-161.8528 525.7834,-161.8528 525.7834,-139.8528 436.7834,-139.8528"/>
<text text-anchor="start" x="449.7904" y="-147.2528" font-family="Times,serif" font-weight="bold" font-size="14.00" fill="#000000">PlayerStats</text>
<polygon fill="none" stroke="#000000" points="436.7834,-117.8528 436.7834,-139.8528 525.7834,-139.8528 525.7834,-117.8528 436.7834,-117.8528"/>
<text text-anchor="start" x="439.8777" y="-124.2528" font-family="Times,serif" font-size="14.00" fill="#000000">match_id (FK)</text>
<polygon fill="none" stroke="#000000" points="436.7834,-95.8528 436.7834,-117.8528 525.7834,-117.8528 525.7834,-95.8528 436.7834,-95.8528"/>
<text text-anchor="start" x="439.4927" y="-102.2528" font-family="Times,serif" font-size="14.00" fill="#000000">player_id (FK)</text>
<polygon fill="none" stroke="#000000" points="436.7834,-73.8528 436.7834,-95.8528 525.7834,-95.8528 525.7834,-73.8528 436.7834,-73.8528"/>
<text text-anchor="start" x="464.1705" y="-80.2528" font-family="Times,serif" font-size="14.00" fill="#000000">points</text>
<polygon fill="none" stroke="#000000" points="436.7834,-51.8528 436.7834,-73.8528 525.7834,-73.8528 525.7834,-51.8528 436.7834,-51.8528"/>
<text text-anchor="start" x="463.3963" y="-58.2528" font-family="Times,serif" font-size="14.00" fill="#000000">assists</text>
<polygon fill="none" stroke="#000000" points="436.7834,-29.8528 436.7834,-51.8528 525.7834,-51.8528 525.7834,-29.8528 436.7834,-29.8528"/>
<text text-anchor="start" x="455.6235" y="-36.2528" font-family="Times,serif" font-size="14.00" fill="#000000">rebounds</text>
<polygon fill="none" stroke="#000000" points="436.7834,-7.8528 436.7834,-29.8528 525.7834,-29.8528 525.7834,-7.8528 436.7834,-7.8528"/>
<text text-anchor="start" x="467.2855" y="-14.2528" font-family="Times,serif" font-size="14.00" fill="#000000">fouls</text>
<polygon fill="none" stroke="#000000" points="435.2834,-6.8528 435.2834,-162.8528 526.2834,-162.8528 526.2834,-6.8528 435.2834,-6.8528"/>
</g>
<!-- Plays_In&#45;&gt;PlayerStats -->
<g id="edge8" class="edge">
<title>Plays_In&#45;&gt;PlayerStats</title>
<path fill="none" stroke="#000000" d="M319.7577,-84.8528C349.4658,-84.8528 386.0491,-84.8528 416.8344,-84.8528"/>
<polygon fill="#000000" stroke="#000000" points="417.0341,-88.3529 427.0341,-84.8528 417.0341,-81.3529 417.0341,-88.3529"/>
<text text-anchor="middle" x="372.9047" y="-89.0528" font-family="Times,serif" font-size="14.00" fill="#000000">records</text>
</g>
<!-- SummaryStats -->
<g id="node9" class="node">
<title>SummaryStats</title>
<ellipse fill="none" stroke="#000000" cx="708.1138" cy="-84.8528" rx="74.4932" ry="84.7059"/>
<polygon fill="none" stroke="#000000" points="665.1138,-117.8528 665.1138,-139.8528 752.1138,-139.8528 752.1138,-117.8528 665.1138,-117.8528"/>
<text text-anchor="start" x="667.7828" y="-125.2528" font-family="Times,serif" font-weight="bold" font-size="14.00" fill="#000000">SummaryStats</text>
<polygon fill="none" stroke="#000000" points="665.1138,-95.8528 665.1138,-117.8528 745.1138,-117.8528 745.1138,-95.8528 665.1138,-95.8528"/>
<text text-anchor="start" x="672.0577" y="-102.2528" font-family="Times,serif" font-size="14.00" fill="#000000">total_points</text>
<polygon fill="none" stroke="#000000" points="665.1138,-73.8528 665.1138,-95.8528 745.1138,-95.8528 745.1138,-73.8528 665.1138,-73.8528"/>
<text text-anchor="start" x="674.3936" y="-80.2528" font-family="Times,serif" font-size="14.00" fill="#000000">avg_points</text>
<polygon fill="none" stroke="#000000" points="665.1138,-51.8528 665.1138,-73.8528 745.1138,-73.8528 745.1138,-51.8528 665.1138,-51.8528"/>
<text text-anchor="start" x="671.2835" y="-58.2528" font-family="Times,serif" font-size="14.00" fill="#000000">total_assists</text>
<polygon fill="none" stroke="#000000" points="665.1138,-29.8528 665.1138,-51.8528 745.1138,-51.8528 745.1138,-29.8528 665.1138,-29.8528"/>
<text text-anchor="start" x="673.6194" y="-36.2528" font-family="Times,serif" font-size="14.00" fill="#000000">avg_assists</text>
<polygon fill="none" stroke="#000000" points="663.6138,-28.8528 663.6138,-140.8528 752.6138,-140.8528 752.6138,-28.8528 663.6138,-28.8528"/>
</g>
<!-- PlayerStats&#45;&gt;SummaryStats -->
<g id="edge9" class="edge">
<title>PlayerStats&#45;&gt;SummaryStats</title>
<path fill="none" stroke="#000000" d="M534.3697,-84.8528C561.0231,-84.8528 593.8614,-84.8528 623.7873,-84.8528"/>
<polygon fill="#000000" stroke="#000000" points="623.8113,-88.3529 633.8113,-84.8528 623.8113,-81.3529 623.8113,-88.3529"/>
<text text-anchor="middle" x="584.5755" y="-89.0528" font-family="Times,serif" font-size="14.00" fill="#000000">aggregates</text>
</g>
</g>
</svg>

